<svg xmlns="http://www.w3.org/2000/svg" id="Layer_1" x="0" y="0" version="1.1" viewBox="0 0 29 29" xml:space="preserve"><path d="M14.5 6a1 1 0 01-1-1V2a1 1 0 012 0v3a1 1 0 01-1 1zM14.5 28a1 1 0 01-1-1v-3a1 1 0 012 0v3a1 1 0 01-1 1zM27 15.5h-3a1 1 0 010-2h3a1 1 0 010 2zM5 15.5H2a1 1 0 010-2h3a1 1 0 010 2zM21.217 8.783a.999.999 0 01-.707-1.707l2.122-2.122a.999.999 0 111.414 1.414L21.924 8.49a.997.997 0 01-.707.293zM5.661 24.339a.999.999 0 01-.707-1.707l2.122-2.122a.999.999 0 111.414 1.414l-2.122 2.122a.997.997 0 01-.707.293zM23.339 24.339a.997.997 0 01-.707-.293l-2.122-2.122a.999.999 0 111.414-1.414l2.122 2.122a.999.999 0 01-.707 1.707zM7.783 8.783a.997.997 0 01-.707-.293L4.954 6.368a.999.999 0 111.414-1.414L8.49 7.076a.999.999 0 01-.707 1.707zM14.5 20.997a6.48 6.48 0 01-4.596-1.901 6.506 6.506 0 010-9.192 6.508 6.508 0 019.192 0 6.506 6.506 0 010 9.192 6.48 6.48 0 01-4.596 1.901zm0-10.995a4.483 4.483 0 00-3.182 1.316 4.506 4.506 0 000 6.364 4.504 4.504 0 006.364 0 4.506 4.506 0 000-6.364 4.483 4.483 0 00-3.182-1.316z"/></svg>